<svg width="25" height="24" viewBox="0 0 25 24" fill="none" xmlns="http://www.w3.org/2000/svg">
    <path d="M23.6771 11.8332C23.679 13.2501 23.3912 14.6534 22.8303 15.9627C22.2695 17.272 21.4465 18.4615 20.4086 19.4632C19.3701 20.466 18.1372 21.2614 16.7802 21.8039C15.4232 22.3464 13.9687 22.6254 12.5 22.6248C10.9193 22.6282 9.35596 22.306 7.91439 21.6798L3.24176 22.3472C3.00976 22.3837 2.77202 22.3651 2.54919 22.2928C2.32636 22.2205 2.12517 22.0968 1.96311 21.9324C1.80105 21.768 1.68301 21.5679 1.61925 21.3494C1.55548 21.1309 1.54792 20.9008 1.59722 20.6788L2.2461 16.102C1.62887 14.7582 1.31421 13.3032 1.32293 11.8332C1.32105 10.4163 1.6088 9.01299 2.16968 7.70368C2.73056 6.39437 3.55355 5.20481 4.59147 4.20317C5.6299 3.20033 6.86286 2.40492 8.21986 1.86242C9.57686 1.31992 11.0313 1.04096 12.5 1.0415C15.466 1.0417 18.3106 2.17889 20.4086 4.20317C21.4459 5.20519 22.2686 6.39483 22.8294 7.70405C23.3903 9.01327 23.6783 10.4164 23.6771 11.8332Z" stroke="#FFCD00" stroke-width="1.9375" stroke-linecap="round" stroke-linejoin="round"/>
    </svg>
    