<svg width="32" height="32" viewBox="0 0 32 32" fill="none" xmlns="http://www.w3.org/2000/svg">
    <path
        d="M17.1429 14.8571H22.8571V17.1429H17.1429V22.8571H14.8571V17.1429H9.14286V14.8571H14.8571V9.14286H17.1429V14.8571ZM16 0C17.4762 0 18.8929 0.190476 20.25 0.571429C21.6071 0.952381 22.881 1.4881 24.0714 2.17857C25.2619 2.86905 26.3393 3.70238 27.3036 4.67857C28.2679 5.65476 29.1012 6.73214 29.8036 7.91071C30.506 9.08929 31.0476 10.3631 31.4286 11.7321C31.8095 13.1012 32 14.5238 32 16C32 17.4762 31.8095 18.8929 31.4286 20.25C31.0476 21.6071 30.5119 22.881 29.8214 24.0714C29.131 25.2619 28.2976 26.3393 27.3214 27.3036C26.3452 28.2679 25.2679 29.1012 24.0893 29.8036C22.9107 30.506 21.6369 31.0476 20.2679 31.4286C18.8988 31.8095 17.4762 32 16 32C14.5238 32 13.1071 31.8095 11.75 31.4286C10.3929 31.0476 9.11905 30.5119 7.92857 29.8214C6.7381 29.131 5.66071 28.2976 4.69643 27.3214C3.73214 26.3452 2.89881 25.2679 2.19643 24.0893C1.49405 22.9107 0.952381 21.6369 0.571429 20.2679C0.190476 18.8988 0 17.4762 0 16C0 14.5238 0.190476 13.1071 0.571429 11.75C0.952381 10.3929 1.4881 9.11905 2.17857 7.92857C2.86905 6.7381 3.70238 5.66071 4.67857 4.69643C5.65476 3.73214 6.73214 2.89881 7.91071 2.19643C9.08929 1.49405 10.3631 0.952381 11.7321 0.571429C13.1012 0.190476 14.5238 0 16 0ZM16 29.7143C17.2619 29.7143 18.4762 29.5536 19.6429 29.2321C20.8095 28.9107 21.8988 28.4464 22.9107 27.8393C23.9226 27.2321 24.8512 26.5179 25.6964 25.6964C26.5417 24.875 27.256 23.9524 27.8393 22.9286C28.4226 21.9048 28.881 20.8095 29.2143 19.6429C29.5476 18.4762 29.7143 17.2619 29.7143 16C29.7143 14.7381 29.5536 13.5238 29.2321 12.3571C28.9107 11.1905 28.4464 10.1012 27.8393 9.08929C27.2321 8.07738 26.5179 7.14881 25.6964 6.30357C24.875 5.45833 23.9524 4.74405 22.9286 4.16071C21.9048 3.57738 20.8095 3.11905 19.6429 2.78571C18.4762 2.45238 17.2619 2.28571 16 2.28571C14.7381 2.28571 13.5238 2.44643 12.3571 2.76786C11.1905 3.08929 10.1012 3.55357 9.08929 4.16071C8.07738 4.76786 7.14881 5.48214 6.30357 6.30357C5.45833 7.125 4.74405 8.04762 4.16071 9.07143C3.57738 10.0952 3.11905 11.1905 2.78571 12.3571C2.45238 13.5238 2.28571 14.7381 2.28571 16C2.28571 17.2619 2.44643 18.4762 2.76786 19.6429C3.08929 20.8095 3.55357 21.8988 4.16071 22.9107C4.76786 23.9226 5.48214 24.8512 6.30357 25.6964C7.125 26.5417 8.04762 27.256 9.07143 27.8393C10.0952 28.4226 11.1905 28.881 12.3571 29.2143C13.5238 29.5476 14.7381 29.7143 16 29.7143Z"
        fill="white" />
</svg>
    