<svg width="26" height="26" viewBox="0 0 26 26" fill="none" xmlns="http://www.w3.org/2000/svg">
<path d="M21.8237 16.0762V21.6262C21.8234 22.4115 21.5135 23.1645 20.962 23.7197C20.4106 24.275 19.6628 24.5871 18.883 24.5874H4.48249C4.09489 24.5873 3.71114 24.51 3.3533 24.36C2.99546 24.2101 2.67057 23.9904 2.39731 23.7136C2.12404 23.4368 1.90779 23.1083 1.76097 22.7471C1.61416 22.3859 1.53967 21.999 1.5418 21.6087V7.12369C1.53949 6.734 1.61401 6.34772 1.76104 5.98724C1.90807 5.62677 2.12468 5.29926 2.39833 5.0237C2.67197 4.74815 2.9972 4.53002 3.35518 4.38196C3.71315 4.2339 4.09674 4.15886 4.48373 4.16119H9.99394" stroke="white" stroke-width="1.5" stroke-linecap="round" stroke-linejoin="round"/>
<path d="M21.8237 9.26904L16.7529 4.16154M6.61133 17.779V15.0728C6.61381 14.6265 6.79008 14.1978 7.10165 13.8815L18.9339 1.96654C19.0909 1.80667 19.2778 1.67975 19.4839 1.59313C19.6899 1.50651 19.911 1.46191 20.1343 1.46191C20.3575 1.46191 20.5786 1.50651 20.7846 1.59313C20.9907 1.67975 21.1776 1.80667 21.3346 1.96654L24.0047 4.65529C24.1635 4.81339 24.2895 5.00163 24.3755 5.20911C24.4615 5.41659 24.5058 5.6392 24.5058 5.86404C24.5058 6.08888 24.4615 6.31148 24.3755 6.51897C24.2895 6.72645 24.1635 6.91469 24.0047 7.07279L12.1724 18.9878C11.8578 19.3024 11.4329 19.4798 10.9895 19.4815H8.30201C8.07989 19.4819 7.8599 19.4381 7.65463 19.3526C7.44936 19.2672 7.26285 19.1418 7.10579 18.9836C6.94873 18.8255 6.82421 18.6377 6.73936 18.4309C6.65451 18.2242 6.611 18.0027 6.61133 17.779Z" stroke="white" stroke-width="1.5" stroke-linecap="round" stroke-linejoin="round"/>
</svg>
