<svg xmlns="http://www.w3.org/2000/svg" width="24" height="24" viewBox="0 0 24 24" id="gift"><path d="M22 24H2c-.6 0-1-.4-1-1V11c0-.6.4-1 1-1h20c.6 0 1 .4 1 1v12c0 .6-.4 1-1 1zM3 22h18V12H3v10z"></path><path d="M23 12H1c-.6 0-1-.4-1-1V7c0-.6.4-1 1-1h22c.6 0 1 .4 1 1v4c0 .6-.4 1-1 1zM2 10h20V8H2v2z"></path><path d="M12 24c-.6 0-1-.4-1-1V7c0-.6.4-1 1-1s1 .4 1 1v16c0 .6-.4 1-1 1zm3-16c-.6 0-1-.4-1-1s.4-1 1-1c1.1 0 2-.9 2-2s-.9-2-2-2-2 .9-2 2c0 .6-.4 1-1 1s-1-.4-1-1c0-2.2 1.8-4 4-4s4 1.8 4 4-1.8 4-4 4z"></path><path d="M9 8C6.8 8 5 6.2 5 4s1.8-4 4-4 4 1.8 4 4c0 .6-.4 1-1 1s-1-.4-1-1c0-1.1-.9-2-2-2s-2 .9-2 2 .9 2 2 2c.6 0 1 .4 1 1s-.4 1-1 1z"></path><path d="M12 10c-.6 0-1-.4-1-1V4c0-.6.4-1 1-1s1 .4 1 1v5c0 .6-.4 1-1 1z"></path></svg>