<svg xmlns="http://www.w3.org/2000/svg" width="1382.818" height="987.517" viewBox="0 0 1382.818 987.517">
  <g id="icon3" transform="translate(-7.977 461.92)">
    <path id="Path_55" data-name="Path 55" d="M352.6-459.63c-68.689,8.755-140.746,39.732-195.293,83.5C67.963-304.069,14.089-199.015,8.7-86.1c-1.347,26.713-1.347,26.937,4.714,34.12,3.367,3.816,8.979,7.632,12.571,8.53,8.081,1.8,20.876-3.816,24.243-10.775,1.347-2.694,3.592-18.182,4.938-34.569,2.694-35.692,6.734-57.017,17.06-88.219C102.308-268.6,175.038-348.291,263.257-386.9c39.732-17.285,79.24-26.488,125.257-29.406,28.284-1.571,35.692-4.714,39.508-16.162,3.143-9.428,1.122-17.284-6.285-24.243-5.387-4.938-7.408-5.387-29.631-5.163C379.086-461.65,361.352-460.528,352.6-459.63Z" transform="translate(0)" fill="#fff"/>
    <path id="Path_56" data-name="Path 56" d="M312.9-419.736c-70.036,11.448-126.828,40.63-176.213,90.912C83.713-275.174,52.735-205.587,47.8-129.265c-1.347,17.734-.9,23.121,2.245,28.957,4.265,8.53,10.55,12.122,20.427,12.122,16.162,0,23.57-11.448,23.57-36.365,0-63.3,39.283-143.215,92.259-188.11,44.671-37.712,95.177-58.364,156.459-63.751,26.264-2.245,30.529-3.367,35.018-7.857,10.326-10.1,9.2-25.141-2.245-34.12-5.163-4.041-8.755-4.714-25.366-4.49A333.47,333.47,0,0,0,312.9-419.736Z" transform="translate(48.675 48.549)" fill="#fff"/>
    <path id="Path_57" data-name="Path 57" d="M267.968-378.794c-42.875,7.857-80.587,27.161-112.686,58.139-37.038,35.692-59.037,79.689-65.322,130.2-4.265,33.222-1.122,43.324,14.815,48.487,16.611,5.612,30.08-8.754,30.08-31.875,0-38.161,21.1-83.5,53.2-114.258,28.284-27.162,61.731-42.426,103.034-46.915,29.182-3.367,35.916-6.285,39.283-17.509,2.02-7.408,2.02-10.1-1.122-16.611-2.02-4.265-6.285-8.979-9.428-10.55C312.639-382.835,288.4-382.611,267.968-378.794Z" transform="translate(99.894 99.642)" fill="#fff"/>
    <path id="Path_58" data-name="Path 58" d="M218.536-330.814c-41.079,11.673-73.179,48.487-79.464,91.137-1.571,10.326-2.245,100.565-1.8,266l.673,250.29,5.163,14.591c2.918,8.081,8.306,19.3,12.122,25.141,8.53,13.469,28.508,31.875,42.2,38.834,25.366,12.8,9.652,12.346,352.875,12.346s326.387.673,352.426-12.571c17.734-8.979,38.61-30.978,47.813-50.731,10.1-21.1,12.346-37.487,12.346-90.015,0-23.794.9-41.977,2.02-41.977s19.08,7.408,39.957,16.611c48.038,20.876,181.376,79.689,200.681,88.443,8.081,3.592,16.836,7.408,19.529,8.081l4.938,1.571V16.449c0-148.827-.673-270.717-1.571-270.717-.673,0-56.343,24.243-123.686,53.874-136.705,60.608-139.4,61.731-140.97,59.935-.673-.673-1.122-18.631-1.122-40.181.449-50.731-2.02-69.138-11.9-90.688-9.2-19.754-29.855-41.977-47.589-50.956-26.488-13.469-9.2-12.8-354.671-12.571C254.452-334.854,231.331-334.405,218.536-330.814Zm72.505,217.965c2.245,0,2.918,23.794,3.367,107.075l.673,107.3,50.058.673,49.833.449V145.3H246.82V16.674c0-70.934.449-129.3.9-129.747C248.391-113.746,267.92-113.746,291.041-112.848Zm570.84,19.3v21.1H760.867v65.1l43.324.449,43.1.673.673,20.652.673,20.876h-87.77v67.343l53.425.449,53.2.673.673,19.978c.673,14.815,0,20.427-2.245,21.774-1.571,1.122-36.365,2.02-77.219,2.02-66,0-74.75-.449-75.873-3.592-1.8-4.714-1.8-250.963,0-255.453,1.347-3.367,9.428-3.592,75.2-3.592l73.852.224ZM473.539,16c0,115.38-.449,128.849-3.592,130.2-6.51,2.469-40.181,1.571-43.1-1.347-2.02-2.02-2.694-34.12-2.694-130.2v-127.5h49.384Zm84.627-87.994c6.285,22.672,16.162,64.2,22,92.708,5.612,28.284,11,53.65,11.673,56.119.9,2.694,6.959-22.223,14.366-58.364,6.959-34.569,17.06-78.117,22.447-96.524l9.877-33.671,24.243-.673c22.448-.449,24.243-.224,23.121,3.367-.673,2.245-8.755,32.773-18.183,68.016-9.2,35.243-19.3,72.954-22.447,84.178-3.143,11-10.55,38.385-16.387,60.608l-11,40.406-24.917.673-24.917.673-2.469-9.652c-1.347-5.387-16.611-61.731-33.9-125.257-17.06-63.751-31.2-117.625-31.2-119.645,0-3.367,2.918-3.816,23.121-3.816h23.121Z" transform="translate(160.775 158.063)" fill="#fff"/>
  </g>
</svg>
