<svg xmlns="http://www.w3.org/2000/svg" width="44.06" height="44.992" viewBox="0 0 44.06 44.992">
  <path id="Path_19" data-name="Path 19" d="M16.748,49.451H6.194A2.194,2.194,0,0,1,4,47.257V27.932a2.195,2.195,0,0,1,.6-1.5L24.624,5.149a2.194,2.194,0,0,1,3.2,0L47.464,26.021a2.194,2.194,0,0,1,.6,1.5V47.257a2.194,2.194,0,0,1-2.194,2.194H34.929a2.194,2.194,0,0,1-2.194-2.194V36.425a6.115,6.115,0,0,0-6.513-6.106c-7.663,0-7.28,6.106-7.28,6.106V47.257A2.194,2.194,0,0,1,16.748,49.451Z" transform="translate(-4 -4.459)"/>
</svg>
