<svg xmlns="http://www.w3.org/2000/svg" width="52.663" height="47.048" viewBox="0 0 52.663 47.048">
  <path id="Path_20" data-name="Path 20" d="M57.185,8.083c7.413-.8,12.24,4.453,13.147,6.68.907-2.227,6.382-7.417,13.147-6.68,10.047,1.1,13.6,10.02,13.147,16.223-.382,5.233-1.36,10.02-12.24,20.04-5.028,4.631-8.584,7.68-10.894,9.552a4.914,4.914,0,0,1-6.319,0c-2.31-1.872-5.866-4.921-10.894-9.552-10.88-10.02-11.858-14.807-12.24-20.04C43.585,18.1,47.1,9.178,57.185,8.083Z" transform="translate(-44 -8)"/>
</svg>
