<svg width="132" height="125" viewBox="0 0 132 125" fill="none" xmlns="http://www.w3.org/2000/svg">
    <g filter="url(#filter0_d_2279_10102)">
        <path
            d="M40.2521 76.2608L25.854 83.8038L24.9245 85.0619V89.8878C24.9245 90.1477 25.0235 90.9274 23.8356 91.5535C22.7797 92.1088 5.62617 101.046 4.94421 101.406C2.67284 102.587 0.582965 105.659 0.467472 108.931C0.307982 113.58 0 123.391 0 123.391C0 123.391 35.2309 105.092 36.7928 104.253C38.0963 103.556 40.8406 100.319 40.9176 96.1786C41.0331 89.9764 41.3301 77.7316 41.3411 77.0582C41.3521 76.4321 40.9561 75.8887 40.2521 76.2608Z"
            fill="#FFCD00" />
    </g>
    <g filter="url(#filter1_d_2279_10102)">
        <path
            d="M42.4084 48.2976L6.12698 67.2112C6.12698 67.2112 2.22221 69.3436 1.72724 74.2344C1.48526 79.1489 1.05078 94.3235 1.05078 94.9083C1.05078 95.493 1.80424 96.2905 2.82718 95.747C3.85012 95.2036 16.2354 88.8242 16.2354 88.8242C16.2354 88.8242 17.0163 88.588 16.9613 87.2708C16.9063 85.9535 17.4398 81.8424 17.4398 81.8424C17.4398 81.8424 17.2803 80.6433 18.6662 79.9581C20.0522 79.2729 37.9866 70.011 37.9866 70.011C37.9866 70.011 41.5504 68.1268 42.1389 62.9819C42.7218 57.8371 42.4084 48.3094 42.4084 48.3094V48.2976Z"
            fill="#FFCD00" />
    </g>
    <g filter="url(#filter2_d_2279_10102)">
        <path
            d="M44.9883 49.0658C44.9883 49.6387 44.0039 85.0973 44.0039 85.5108C44.0039 86.3968 44.6199 86.2846 45.2413 85.9302C45.7473 85.6467 63.5718 75.6051 63.9787 75.3747C64.6552 74.9908 65.0952 74.1756 65.1062 73.1183C65.1062 72.4686 65.2767 65.9179 65.2767 65.5753C65.2767 65.0673 65.1227 64.4944 64.2922 64.9669C63.5718 65.3804 53.1664 71.2518 52.9904 71.3581C52.7869 71.4762 52.5944 71.4821 52.5999 71.1218C52.6164 70.4248 53.3479 44.5057 53.3589 44.1395C53.3699 43.7024 53.1994 42.7809 52.4129 43.2239C51.6265 43.6669 46.3138 46.6558 45.9728 46.8389C45.1313 47.2937 44.9883 48.3747 44.9883 49.0658Z"
            fill="white" />
    </g>
    <g filter="url(#filter3_d_2279_10102)">
        <path
            d="M67.7891 35.6516C67.7726 36.1418 66.7441 72.3742 66.7441 72.6755C66.7441 73.3725 67.1841 73.5024 67.9321 73.083C68.878 72.5514 73.2723 70.0529 73.7067 69.8107C74.5207 69.3618 75.0267 68.7297 75.0267 67.4657C75.0267 66.2016 76.0276 31.5523 76.0441 31.1388C76.0606 30.6662 75.8956 29.9692 74.9937 30.4536C74.0917 30.9379 69.131 33.7319 68.779 33.9681C68.427 34.2044 67.8166 34.736 67.7891 35.6457V35.6516Z"
            fill="white" />
    </g>
    <g filter="url(#filter4_d_2279_10102)">
        <path
            d="M80.8457 28.3745C80.8292 28.8647 79.8008 65.0971 79.8008 65.3984C79.8008 66.0954 80.2408 66.2253 80.9887 65.8059C81.9347 65.2743 86.2959 62.7994 86.7634 62.5336C87.8083 61.937 88.0833 61.11 88.0833 60.1886C88.0833 59.6688 88.4408 46.786 88.4463 46.662C88.4573 46.3253 88.5838 46.0004 88.7708 45.6401C89.2767 44.7009 103.108 17.7363 104.516 14.8715C104.769 14.3576 104.527 13.891 103.669 14.3753C101.876 15.3913 98.2907 17.4173 96.0523 18.6696C95.2329 19.1303 94.6774 20.2526 94.5234 20.5598C94.1494 21.3099 90.0412 29.4672 89.0952 31.3279C88.9358 31.6409 88.8698 31.6528 88.8698 31.3279C88.8698 30.9558 89.0897 23.9798 89.0952 23.8558C89.1117 23.3832 88.9467 22.6862 88.0448 23.1706C87.1374 23.6549 82.1821 26.4489 81.8302 26.6851C81.4782 26.9214 80.8677 27.453 80.8402 28.3627L80.8457 28.3745Z"
            fill="white" />
    </g>
    <g filter="url(#filter5_d_2279_10102)">
        <path
            d="M94.896 36.9155C94.665 37.3704 90.7602 45.0669 90.5072 45.5631C90.1993 46.1597 89.9188 46.8685 90.4522 48.0144C90.9857 49.1604 94.544 56.6679 94.7145 57.0164C94.973 57.5539 95.3635 57.7134 96.1444 57.2586C97.2278 56.6325 102.81 53.5137 103.299 53.2361C103.932 52.8817 104.487 52.2083 103.932 51.1096C103.239 49.7451 96.6779 36.8033 96.4029 36.2599C96.1609 35.7814 95.6384 35.4684 94.9015 36.9155H94.896Z"
            fill="white" />
    </g>
    <g filter="url(#filter6_d_2279_10102)">
        <path
            d="M128.864 0.245897C127.83 0.812951 108.482 11.7346 107.91 12.0477C107.338 12.3608 106.541 12.5911 106.42 14.5227C106.299 16.4542 105.369 50.1466 105.369 50.82C105.369 51.4934 105.386 52.1845 106.953 51.2926C108.229 50.566 127.005 39.9751 127.604 39.6443C128.204 39.3136 129.001 38.906 129.034 37.4116C129.067 36.0057 129.227 30.3175 129.238 29.7563C129.249 29.1952 129.249 28.445 127.758 29.2838C126.268 30.1226 115.104 36.4369 114.559 36.7264C114.158 36.9449 113.839 37.1989 113.839 36.685C113.839 35.6572 114.356 19.5789 114.356 19.1477C114.356 18.7165 114.664 18.5216 115.082 18.2794C115.522 18.0254 128.209 10.9254 128.583 10.7128C129.133 10.3997 129.777 9.93307 129.804 8.79305C129.826 7.74755 130.057 1.86436 130.068 1.10238C130.079 0.547144 130.162 -0.468828 128.858 0.245897H128.864Z"
            fill="white" />
    </g>
    <g filter="url(#filter7_d_2279_10102)">
        <path
            d="M117.474 21.6348C117.952 21.369 126.531 16.5727 126.828 16.4073C127.576 15.9938 127.945 16.2006 127.928 17.0275C127.917 17.7422 127.824 22.6449 127.818 23.1529C127.802 24.0684 127.4 24.8777 126.295 25.4802C125.03 26.1713 117.408 30.4478 116.984 30.7018C116.561 30.9558 115.802 31.4106 115.813 30.2588C115.818 29.1069 115.939 24.4288 115.95 24.0212C115.983 22.9402 116.286 22.3023 117.474 21.6407V21.6348Z"
            fill="white" />
    </g>
    <g filter="url(#filter8_d_2279_10102)">
        <path
            d="M50.8176 90.0294C50.8176 90.0294 50.8176 88.8422 50.8176 88.6886C50.8341 87.9266 50.0422 87.5899 49.3602 87.9916C48.3923 88.5587 45.417 90.3248 45.2245 90.4311C45.032 90.5374 44.141 91.1813 44.1245 92.3922C44.1135 93.3845 44.1135 94.7608 44.1245 95.0975C44.13 95.3928 44.559 96.1607 45.2795 95.7827C46.1099 95.3456 48.8103 93.8807 48.8103 93.8807V95.2452L46.1704 96.7337C46.1704 96.7337 46.0054 96.905 46.0054 96.1371C45.472 96.3675 43.998 97.3362 43.998 97.3362V98.3994C43.998 98.9724 44.4325 99.7993 45.373 99.2854C46.1704 98.8483 48.5628 97.537 49.0413 97.2712C49.5197 97.0054 50.8011 96.078 50.8121 94.6013C50.8121 93.7507 50.8121 93.0537 50.8121 92.3272C50.8121 91.6007 50.0532 91.1399 49.1842 91.6361C48.3153 92.1323 46.1099 93.414 46.1099 93.414V92.0437C46.1099 92.0437 48.2548 90.7855 48.4528 90.6733C48.7388 90.5079 48.8598 90.4784 48.8598 90.8269C48.8598 91.1517 48.8598 91.1872 48.8598 91.1872L50.8067 90.0235L50.8176 90.0294Z"
            fill="white" />
    </g>
    <g filter="url(#filter9_d_2279_10102)">
        <path
            d="M52.1362 86.4323L51.8887 95.5879L54.1105 94.1879L54.248 87.5605C54.248 87.5605 56.4974 86.2846 56.5854 86.2374C56.6734 86.1901 56.7504 86.2138 56.7504 86.3673C56.7504 86.6686 56.7504 87.7554 56.7504 87.8086C56.7504 87.8617 56.7614 87.9976 56.6679 88.0567C56.5799 88.1098 54.754 89.2617 54.754 89.2617L54.688 91.4649C54.688 91.4649 57.2069 90.0236 57.6688 89.746C58.1693 89.4448 58.8788 88.606 58.8898 87.4246C58.9008 86.2433 58.9448 84.6839 58.9448 84.3236C58.9448 83.2603 58.2023 83.0241 57.2014 83.5675C56.5139 83.9396 52.1362 86.4323 52.1362 86.4323Z"
            fill="white" />
    </g>
    <g filter="url(#filter10_d_2279_10102)">
        <path
            d="M62.7565 87.2475V89.433C62.7565 89.433 61.4311 90.2363 61.0681 90.4431C60.3587 90.8506 59.5887 90.5907 59.5997 89.6102C59.6107 88.6297 59.7042 84.3472 59.7262 83.6561C59.7592 82.6756 60.2927 81.7837 61.8656 80.939C62.9765 80.3424 64.7694 79.356 65.1984 79.1197C65.7594 78.8066 66.8153 78.7417 66.7713 80.2125C66.7383 81.3997 66.6173 85.121 66.5898 85.7708C66.5513 86.6036 66.0838 87.5605 65.2919 88.0213C64.6484 88.3934 63.4 89.1436 63.4 89.1436L63.422 86.834C63.422 86.834 64.192 86.3792 64.3074 86.3142C64.5219 86.1902 64.5384 86.1547 64.5384 85.629C64.5384 84.9084 64.5439 81.825 64.5439 81.825L61.8821 83.284C61.8821 83.284 61.7446 87.3597 61.7336 87.5074C61.7281 87.6787 61.7831 87.7791 61.9591 87.6846C62.1461 87.5842 62.751 87.2416 62.751 87.2416L62.7565 87.2475Z"
            fill="white" />
    </g>
    <g filter="url(#filter11_d_2279_10102)">
        <path
            d="M67.6578 86.7043C67.6578 86.7043 67.9493 77.9917 67.9548 77.7968C67.9603 77.6019 68.0098 77.4483 68.2188 77.3183C68.4278 77.1884 72.833 74.7371 73.1795 74.5362C73.7515 74.2055 74.8294 74.0873 74.8294 75.3691C74.8294 75.9539 74.7964 77.8913 74.7854 78.3993C74.7689 79.1022 74.5874 79.6456 74.2245 79.9351C73.955 80.1536 73.2345 80.7266 73.2345 80.7266L74.9394 82.5163C74.9394 82.5163 73.3005 83.491 73.0805 83.6268C72.9485 83.7095 72.7395 83.8867 72.5691 83.7036C72.3986 83.5205 70.9467 82.0438 70.9467 82.0438H70.5782L70.6222 79.9114C70.6222 79.9114 72.3161 78.9073 72.4591 78.8187C72.6241 78.7183 72.7175 78.6415 72.712 78.3048C72.7065 77.9681 72.701 77.4896 72.701 77.3479C72.701 77.2061 72.6021 77.1825 72.3601 77.3183C72.0521 77.4896 70.1107 78.5883 70.1107 78.5883L69.9182 85.3634L67.6523 86.6984L67.6578 86.7043Z"
            fill="white" />
    </g>
    <g filter="url(#filter12_d_2279_10102)">
        <path
            d="M75.2246 73.3663L82.2807 69.3142V71.3521C82.2807 71.4702 82.2807 71.6356 82.1432 71.7242C81.9837 71.8187 75.5546 75.5341 75.5546 75.5341C75.5546 75.5341 75.2246 75.7704 75.2246 75.3628V73.3722V73.3663Z"
            fill="white" />
    </g>
    <g filter="url(#filter13_d_2279_10102)">
        <path
            d="M79.7557 73.7207C79.7557 73.7207 77.9903 74.7367 77.7704 74.8607C77.7044 74.8962 77.6329 74.9375 77.6329 75.0438C77.6329 75.1915 77.4844 81.1515 77.4844 81.1515C77.4844 81.1515 79.5138 79.8461 79.5633 79.8224C79.6897 79.7457 79.6952 79.6807 79.6952 79.6157C79.6952 79.5389 79.7557 73.7207 79.7557 73.7207Z"
            fill="white" />
    </g>
    <g filter="url(#filter14_d_2279_10102)">
        <path
            d="M85.4492 76.5741C85.4492 76.5741 85.6087 68.1687 85.6087 67.8143C85.6087 67.4599 85.7132 67.3949 86.0102 67.2118C86.3072 67.0287 87.0276 66.6093 87.2476 66.4853C87.4346 66.3789 87.7206 66.2785 87.8251 66.4853C87.9461 66.7334 89.343 69.4859 89.4035 69.5982C89.519 69.8226 89.64 69.8403 89.7445 69.5391C89.8435 69.2615 91.5209 64.412 91.5814 64.2348C91.6309 64.093 91.6859 64.0399 91.8288 63.9512C92.0103 63.8449 93.2588 63.0889 93.3688 63.0239C93.5447 62.9176 93.7867 62.7699 93.7702 63.3901C93.7537 63.9572 93.5612 71.2934 93.5557 71.5179C93.5502 71.7423 93.5282 71.9668 93.2258 72.1558C92.9013 72.3566 91.8343 73.0064 91.7023 73.0832C91.4054 73.2604 91.3669 73.2249 91.3779 72.9473C91.3944 72.522 91.4659 70.1416 91.4659 70.1416C91.4659 70.1416 90.8554 71.5592 90.7564 71.7837C90.6299 72.0672 90.4319 72.7997 89.893 73.1186C89.6015 73.2899 89.2715 73.4789 89.0845 73.5853C88.8975 73.6916 88.7545 73.8392 88.4905 73.4199C88.2431 73.0359 87.7481 72.2444 87.7481 72.2444C87.7481 72.2444 87.6491 74.6367 87.6326 74.9497C87.6161 75.2628 87.5611 75.3632 87.1706 75.5877C86.7801 75.8121 85.4547 76.5741 85.4547 76.5741H85.4492Z"
            fill="white" />
    </g>
    <g filter="url(#filter15_d_2279_10102)">
        <path
            d="M97.9831 67.2646V69.4501C97.9831 69.4501 96.6577 70.2534 96.2947 70.4602C95.5852 70.8677 94.8153 70.6078 94.8263 69.6273C94.8373 68.6999 94.9308 64.3643 94.9528 63.6732C94.9858 62.6927 95.5192 61.8008 97.0922 60.9561C98.2031 60.3595 99.996 59.3731 100.425 59.1368C100.986 58.8237 102.042 58.7588 101.998 60.2296C101.965 61.4168 101.844 65.1381 101.816 65.7879C101.778 66.6207 101.31 67.5776 100.518 68.0384C99.875 68.4105 98.6266 69.1607 98.6266 69.1607L98.6486 66.8511C98.6486 66.8511 99.4185 66.3963 99.534 66.3313C99.7485 66.2073 99.765 66.1718 99.765 65.6461C99.765 64.9255 99.7705 61.8421 99.7705 61.8421L97.1087 63.3011C97.1087 63.3011 96.9712 67.3768 96.9602 67.5245C96.9547 67.6958 97.0097 67.7962 97.1856 67.7017C97.3726 67.6013 97.9776 67.2587 97.9776 67.2587L97.9831 67.2646Z"
            fill="white" />
    </g>
    <g filter="url(#filter16_d_2279_10102)">
        <path
            d="M102.316 58.0501L109.372 53.998V56.0359C109.372 56.154 109.372 56.3194 109.235 56.408C109.076 56.5025 102.646 60.2179 102.646 60.2179C102.646 60.2179 102.316 60.4542 102.316 60.0466V58.056V58.0501Z"
            fill="white" />
    </g>
    <g filter="url(#filter17_d_2279_10102)">
        <path
            d="M106.848 58.4043C106.848 58.4043 105.082 59.4203 104.862 59.5443C104.796 59.5798 104.725 59.6211 104.725 59.7274C104.725 59.8751 104.576 65.8351 104.576 65.8351C104.576 65.8351 106.606 64.5297 106.655 64.506C106.782 64.4292 106.787 64.3643 106.787 64.2993C106.787 64.2225 106.848 58.4043 106.848 58.4043Z"
            fill="white" />
    </g>
    <g filter="url(#filter18_d_2279_10102)">
        <path
            d="M112.051 52.5449C112.051 52.5449 110.258 53.5845 110.104 53.6672C109.95 53.7499 109.818 53.8267 109.812 54.1161C109.801 54.4292 109.598 62.2321 109.592 62.5215C109.581 62.8346 109.708 62.9232 109.922 62.7991C110.137 62.6751 111.319 61.9604 111.512 61.8481C111.677 61.7477 111.781 61.6709 111.787 61.4347C111.792 61.1452 112.056 52.5449 112.056 52.5449H112.051Z"
            fill="white" />
    </g>
    <g filter="url(#filter19_d_2279_10102)">
        <path
            d="M116.229 56.8979V59.0834C116.229 59.0834 114.904 59.8867 114.541 60.0935C113.831 60.501 113.061 60.2411 113.072 59.2606C113.083 58.3332 113.177 53.9976 113.199 53.3065C113.232 52.326 113.765 51.4341 115.338 50.5894C116.449 49.9928 118.242 49.0064 118.671 48.7701C119.232 48.457 120.288 48.3921 120.244 49.8629C120.211 51.0501 120.09 54.7714 120.062 55.4212C120.024 56.254 119.557 57.2109 118.765 57.6717C118.121 58.0438 116.873 58.794 116.873 58.794L116.895 56.4844C116.895 56.4844 117.665 56.0296 117.78 55.9646C117.995 55.8406 118.011 55.8051 118.011 55.2794C118.011 54.5588 118.017 51.4754 118.017 51.4754L115.355 52.9344C115.355 52.9344 115.217 57.0101 115.206 57.1578C115.201 57.3291 115.256 57.4295 115.432 57.335C115.619 57.2346 116.224 56.892 116.224 56.892L116.229 56.8979Z"
            fill="white" />
    </g>
    <g filter="url(#filter20_d_2279_10102)">
        <path
            d="M121.273 55.8648C121.284 55.6344 121.548 48.0146 121.564 47.7311C121.581 47.4476 121.564 47.2822 121.856 47.1227C122.147 46.9632 123.088 46.408 123.33 46.2721C123.572 46.1362 123.797 46.0358 124.067 46.3784C124.336 46.721 126.091 48.8002 126.179 48.9006C126.267 49.001 126.421 49.0247 126.421 48.7884C126.421 48.5521 126.47 45.0907 126.476 44.8367C126.476 44.6064 126.58 44.506 126.784 44.3819C126.987 44.2579 128.654 43.2773 128.654 43.2773C128.654 43.2773 128.516 51.6709 128.505 51.919C128.494 52.1671 128.483 52.3679 128.142 52.5806C127.801 52.7932 126.872 53.3485 126.685 53.443C126.498 53.5375 126.349 53.6674 126.025 53.2953C125.7 52.9232 123.687 50.6313 123.687 50.6313C123.687 50.6313 123.55 54.6007 123.544 54.8547C123.533 55.091 123.517 55.2091 123.258 55.3568C123.055 55.4749 121.894 56.1424 121.691 56.2605C121.328 56.4673 121.251 56.3432 121.273 55.8589V55.8648Z"
            fill="white" />
    </g>
    <defs>
        <filter id="filter0_d_2279_10102" x="0" y="76.1392" width="42.9418" height="48.8522"
            filterUnits="userSpaceOnUse" color-interpolation-filters="sRGB">
            <feFlood flood-opacity="0" result="BackgroundImageFix" />
            <feColorMatrix in="SourceAlpha" type="matrix"
                values="0 0 0 0 0 0 0 0 0 0 0 0 0 0 0 0 0 0 127 0" result="hardAlpha" />
            <feOffset dx="1.6" dy="1.6" />
            <feColorMatrix type="matrix" values="0 0 0 0 0 0 0 0 0 0 0 0 0 0 0 0 0 0 1 0" />
            <feBlend mode="normal" in2="BackgroundImageFix" result="effect1_dropShadow_2279_10102" />
            <feBlend mode="normal" in="SourceGraphic" in2="effect1_dropShadow_2279_10102"
                result="shape" />
        </filter>
        <filter id="filter1_d_2279_10102" x="1.05078" y="48.2976" width="43.0414" height="49.2306"
            filterUnits="userSpaceOnUse" color-interpolation-filters="sRGB">
            <feFlood flood-opacity="0" result="BackgroundImageFix" />
            <feColorMatrix in="SourceAlpha" type="matrix"
                values="0 0 0 0 0 0 0 0 0 0 0 0 0 0 0 0 0 0 127 0" result="hardAlpha" />
            <feOffset dx="1.6" dy="1.6" />
            <feColorMatrix type="matrix" values="0 0 0 0 0 0 0 0 0 0 0 0 0 0 0 0 0 0 1 0" />
            <feBlend mode="normal" in2="BackgroundImageFix" result="effect1_dropShadow_2279_10102" />
            <feBlend mode="normal" in="SourceGraphic" in2="effect1_dropShadow_2279_10102"
                result="shape" />
        </filter>
        <filter id="filter2_d_2279_10102" x="44.0039" y="43.1064" width="22.8734" height="44.6864"
            filterUnits="userSpaceOnUse" color-interpolation-filters="sRGB">
            <feFlood flood-opacity="0" result="BackgroundImageFix" />
            <feColorMatrix in="SourceAlpha" type="matrix"
                values="0 0 0 0 0 0 0 0 0 0 0 0 0 0 0 0 0 0 127 0" result="hardAlpha" />
            <feOffset dx="1.6" dy="1.6" />
            <feColorMatrix type="matrix" values="0 0 0 0 0 0 0 0 0 0 0 0 0 0 0 0 0 0 1 0" />
            <feBlend mode="normal" in2="BackgroundImageFix" result="effect1_dropShadow_2279_10102" />
            <feBlend mode="normal" in="SourceGraphic" in2="effect1_dropShadow_2279_10102"
                result="shape" />
        </filter>
        <filter id="filter3_d_2279_10102" x="66.7441" y="30.2896" width="10.9008" height="44.6327"
            filterUnits="userSpaceOnUse" color-interpolation-filters="sRGB">
            <feFlood flood-opacity="0" result="BackgroundImageFix" />
            <feColorMatrix in="SourceAlpha" type="matrix"
                values="0 0 0 0 0 0 0 0 0 0 0 0 0 0 0 0 0 0 127 0" result="hardAlpha" />
            <feOffset dx="1.6" dy="1.6" />
            <feColorMatrix type="matrix" values="0 0 0 0 0 0 0 0 0 0 0 0 0 0 0 0 0 0 1 0" />
            <feBlend mode="normal" in2="BackgroundImageFix" result="effect1_dropShadow_2279_10102" />
            <feBlend mode="normal" in="SourceGraphic" in2="effect1_dropShadow_2279_10102"
                result="shape" />
        </filter>
        <filter id="filter4_d_2279_10102" x="79.8008" y="14.1718" width="26.4105" height="53.4734"
            filterUnits="userSpaceOnUse" color-interpolation-filters="sRGB">
            <feFlood flood-opacity="0" result="BackgroundImageFix" />
            <feColorMatrix in="SourceAlpha" type="matrix"
                values="0 0 0 0 0 0 0 0 0 0 0 0 0 0 0 0 0 0 127 0" result="hardAlpha" />
            <feOffset dx="1.6" dy="1.6" />
            <feColorMatrix type="matrix" values="0 0 0 0 0 0 0 0 0 0 0 0 0 0 0 0 0 0 1 0" />
            <feBlend mode="normal" in2="BackgroundImageFix" result="effect1_dropShadow_2279_10102" />
            <feBlend mode="normal" in="SourceGraphic" in2="effect1_dropShadow_2279_10102"
                result="shape" />
        </filter>
        <filter id="filter5_d_2279_10102" x="90.1523" y="35.8597" width="15.6078" height="23.2649"
            filterUnits="userSpaceOnUse" color-interpolation-filters="sRGB">
            <feFlood flood-opacity="0" result="BackgroundImageFix" />
            <feColorMatrix in="SourceAlpha" type="matrix"
                values="0 0 0 0 0 0 0 0 0 0 0 0 0 0 0 0 0 0 127 0" result="hardAlpha" />
            <feOffset dx="1.6" dy="1.6" />
            <feColorMatrix type="matrix" values="0 0 0 0 0 0 0 0 0 0 0 0 0 0 0 0 0 0 1 0" />
            <feBlend mode="normal" in2="BackgroundImageFix" result="effect1_dropShadow_2279_10102" />
            <feBlend mode="normal" in="SourceGraphic" in2="effect1_dropShadow_2279_10102"
                result="shape" />
        </filter>
        <filter id="filter6_d_2279_10102" x="105.369" y="0" width="26.3031" height="53.3163"
            filterUnits="userSpaceOnUse" color-interpolation-filters="sRGB">
            <feFlood flood-opacity="0" result="BackgroundImageFix" />
            <feColorMatrix in="SourceAlpha" type="matrix"
                values="0 0 0 0 0 0 0 0 0 0 0 0 0 0 0 0 0 0 127 0" result="hardAlpha" />
            <feOffset dx="1.6" dy="1.6" />
            <feColorMatrix type="matrix" values="0 0 0 0 0 0 0 0 0 0 0 0 0 0 0 0 0 0 1 0" />
            <feBlend mode="normal" in2="BackgroundImageFix" result="effect1_dropShadow_2279_10102" />
            <feBlend mode="normal" in="SourceGraphic" in2="effect1_dropShadow_2279_10102"
                result="shape" />
        </filter>
        <filter id="filter7_d_2279_10102" x="115.812" y="16.2006" width="13.7172" height="16.4069"
            filterUnits="userSpaceOnUse" color-interpolation-filters="sRGB">
            <feFlood flood-opacity="0" result="BackgroundImageFix" />
            <feColorMatrix in="SourceAlpha" type="matrix"
                values="0 0 0 0 0 0 0 0 0 0 0 0 0 0 0 0 0 0 127 0" result="hardAlpha" />
            <feOffset dx="1.6" dy="1.6" />
            <feColorMatrix type="matrix" values="0 0 0 0 0 0 0 0 0 0 0 0 0 0 0 0 0 0 1 0" />
            <feBlend mode="normal" in2="BackgroundImageFix" result="effect1_dropShadow_2279_10102" />
            <feBlend mode="normal" in="SourceGraphic" in2="effect1_dropShadow_2279_10102"
                result="shape" />
        </filter>
        <filter id="filter8_d_2279_10102" x="43.998" y="87.8208" width="8.42031" height="13.226"
            filterUnits="userSpaceOnUse" color-interpolation-filters="sRGB">
            <feFlood flood-opacity="0" result="BackgroundImageFix" />
            <feColorMatrix in="SourceAlpha" type="matrix"
                values="0 0 0 0 0 0 0 0 0 0 0 0 0 0 0 0 0 0 127 0" result="hardAlpha" />
            <feOffset dx="1.6" dy="1.6" />
            <feColorMatrix type="matrix" values="0 0 0 0 0 0 0 0 0 0 0 0 0 0 0 0 0 0 1 0" />
            <feBlend mode="normal" in2="BackgroundImageFix" result="effect1_dropShadow_2279_10102" />
            <feBlend mode="normal" in="SourceGraphic" in2="effect1_dropShadow_2279_10102"
                result="shape" />
        </filter>
        <filter id="filter9_d_2279_10102" x="51.8887" y="83.2854" width="8.65664" height="13.9025"
            filterUnits="userSpaceOnUse" color-interpolation-filters="sRGB">
            <feFlood flood-opacity="0" result="BackgroundImageFix" />
            <feColorMatrix in="SourceAlpha" type="matrix"
                values="0 0 0 0 0 0 0 0 0 0 0 0 0 0 0 0 0 0 127 0" result="hardAlpha" />
            <feOffset dx="1.6" dy="1.6" />
            <feColorMatrix type="matrix" values="0 0 0 0 0 0 0 0 0 0 0 0 0 0 0 0 0 0 1 0" />
            <feBlend mode="normal" in2="BackgroundImageFix" result="effect1_dropShadow_2279_10102" />
            <feBlend mode="normal" in="SourceGraphic" in2="effect1_dropShadow_2279_10102"
                result="shape" />
        </filter>
        <filter id="filter10_d_2279_10102" x="59.5996" y="78.937" width="8.77383" height="13.2912"
            filterUnits="userSpaceOnUse" color-interpolation-filters="sRGB">
            <feFlood flood-opacity="0" result="BackgroundImageFix" />
            <feColorMatrix in="SourceAlpha" type="matrix"
                values="0 0 0 0 0 0 0 0 0 0 0 0 0 0 0 0 0 0 127 0" result="hardAlpha" />
            <feOffset dx="1.6" dy="1.6" />
            <feColorMatrix type="matrix" values="0 0 0 0 0 0 0 0 0 0 0 0 0 0 0 0 0 0 1 0" />
            <feBlend mode="normal" in2="BackgroundImageFix" result="effect1_dropShadow_2279_10102" />
            <feBlend mode="normal" in="SourceGraphic" in2="effect1_dropShadow_2279_10102"
                result="shape" />
        </filter>
        <filter id="filter11_d_2279_10102" x="67.6523" y="74.3164" width="8.88711" height="13.9879"
            filterUnits="userSpaceOnUse" color-interpolation-filters="sRGB">
            <feFlood flood-opacity="0" result="BackgroundImageFix" />
            <feColorMatrix in="SourceAlpha" type="matrix"
                values="0 0 0 0 0 0 0 0 0 0 0 0 0 0 0 0 0 0 127 0" result="hardAlpha" />
            <feOffset dx="1.6" dy="1.6" />
            <feColorMatrix type="matrix" values="0 0 0 0 0 0 0 0 0 0 0 0 0 0 0 0 0 0 1 0" />
            <feBlend mode="normal" in2="BackgroundImageFix" result="effect1_dropShadow_2279_10102" />
            <feBlend mode="normal" in="SourceGraphic" in2="effect1_dropShadow_2279_10102"
                result="shape" />
        </filter>
        <filter id="filter12_d_2279_10102" x="75.2246" y="69.3142" width="8.65664" height="7.98809"
            filterUnits="userSpaceOnUse" color-interpolation-filters="sRGB">
            <feFlood flood-opacity="0" result="BackgroundImageFix" />
            <feColorMatrix in="SourceAlpha" type="matrix"
                values="0 0 0 0 0 0 0 0 0 0 0 0 0 0 0 0 0 0 127 0" result="hardAlpha" />
            <feOffset dx="1.6" dy="1.7" />
            <feColorMatrix type="matrix" values="0 0 0 0 0 0 0 0 0 0 0 0 0 0 0 0 0 0 1 0" />
            <feBlend mode="normal" in2="BackgroundImageFix" result="effect1_dropShadow_2279_10102" />
            <feBlend mode="normal" in="SourceGraphic" in2="effect1_dropShadow_2279_10102"
                result="shape" />
        </filter>
        <filter id="filter13_d_2279_10102" x="77.4844" y="73.7207" width="3.87148" height="9.03066"
            filterUnits="userSpaceOnUse" color-interpolation-filters="sRGB">
            <feFlood flood-opacity="0" result="BackgroundImageFix" />
            <feColorMatrix in="SourceAlpha" type="matrix"
                values="0 0 0 0 0 0 0 0 0 0 0 0 0 0 0 0 0 0 127 0" result="hardAlpha" />
            <feOffset dx="1.6" dy="1.6" />
            <feColorMatrix type="matrix" values="0 0 0 0 0 0 0 0 0 0 0 0 0 0 0 0 0 0 1 0" />
            <feBlend mode="normal" in2="BackgroundImageFix" result="effect1_dropShadow_2279_10102" />
            <feBlend mode="normal" in="SourceGraphic" in2="effect1_dropShadow_2279_10102"
                result="shape" />
        </filter>
        <filter id="filter14_d_2279_10102" x="85.4492" y="62.928" width="9.92227" height="15.2462"
            filterUnits="userSpaceOnUse" color-interpolation-filters="sRGB">
            <feFlood flood-opacity="0" result="BackgroundImageFix" />
            <feColorMatrix in="SourceAlpha" type="matrix"
                values="0 0 0 0 0 0 0 0 0 0 0 0 0 0 0 0 0 0 127 0" result="hardAlpha" />
            <feOffset dx="1.6" dy="1.6" />
            <feColorMatrix type="matrix" values="0 0 0 0 0 0 0 0 0 0 0 0 0 0 0 0 0 0 1 0" />
            <feBlend mode="normal" in2="BackgroundImageFix" result="effect1_dropShadow_2279_10102" />
            <feBlend mode="normal" in="SourceGraphic" in2="effect1_dropShadow_2279_10102"
                result="shape" />
        </filter>
        <filter id="filter15_d_2279_10102" x="94.8262" y="58.9541" width="8.77383" height="13.2912"
            filterUnits="userSpaceOnUse" color-interpolation-filters="sRGB">
            <feFlood flood-opacity="0" result="BackgroundImageFix" />
            <feColorMatrix in="SourceAlpha" type="matrix"
                values="0 0 0 0 0 0 0 0 0 0 0 0 0 0 0 0 0 0 127 0" result="hardAlpha" />
            <feOffset dx="1.6" dy="1.6" />
            <feColorMatrix type="matrix" values="0 0 0 0 0 0 0 0 0 0 0 0 0 0 0 0 0 0 1 0" />
            <feBlend mode="normal" in2="BackgroundImageFix" result="effect1_dropShadow_2279_10102" />
            <feBlend mode="normal" in="SourceGraphic" in2="effect1_dropShadow_2279_10102"
                result="shape" />
        </filter>
        <filter id="filter16_d_2279_10102" x="102.316" y="53.998" width="8.65664" height="7.98809"
            filterUnits="userSpaceOnUse" color-interpolation-filters="sRGB">
            <feFlood flood-opacity="0" result="BackgroundImageFix" />
            <feColorMatrix in="SourceAlpha" type="matrix"
                values="0 0 0 0 0 0 0 0 0 0 0 0 0 0 0 0 0 0 127 0" result="hardAlpha" />
            <feOffset dx="1.6" dy="1.7" />
            <feColorMatrix type="matrix" values="0 0 0 0 0 0 0 0 0 0 0 0 0 0 0 0 0 0 1 0" />
            <feBlend mode="normal" in2="BackgroundImageFix" result="effect1_dropShadow_2279_10102" />
            <feBlend mode="normal" in="SourceGraphic" in2="effect1_dropShadow_2279_10102"
                result="shape" />
        </filter>
        <filter id="filter17_d_2279_10102" x="104.576" y="58.4043" width="3.87148" height="9.03066"
            filterUnits="userSpaceOnUse" color-interpolation-filters="sRGB">
            <feFlood flood-opacity="0" result="BackgroundImageFix" />
            <feColorMatrix in="SourceAlpha" type="matrix"
                values="0 0 0 0 0 0 0 0 0 0 0 0 0 0 0 0 0 0 127 0" result="hardAlpha" />
            <feOffset dx="1.6" dy="1.6" />
            <feColorMatrix type="matrix" values="0 0 0 0 0 0 0 0 0 0 0 0 0 0 0 0 0 0 1 0" />
            <feBlend mode="normal" in2="BackgroundImageFix" result="effect1_dropShadow_2279_10102" />
            <feBlend mode="normal" in="SourceGraphic" in2="effect1_dropShadow_2279_10102"
                result="shape" />
        </filter>
        <filter id="filter18_d_2279_10102" x="109.592" y="52.5449" width="4.06484" height="11.9081"
            filterUnits="userSpaceOnUse" color-interpolation-filters="sRGB">
            <feFlood flood-opacity="0" result="BackgroundImageFix" />
            <feColorMatrix in="SourceAlpha" type="matrix"
                values="0 0 0 0 0 0 0 0 0 0 0 0 0 0 0 0 0 0 127 0" result="hardAlpha" />
            <feOffset dx="1.6" dy="1.6" />
            <feColorMatrix type="matrix" values="0 0 0 0 0 0 0 0 0 0 0 0 0 0 0 0 0 0 1 0" />
            <feBlend mode="normal" in2="BackgroundImageFix" result="effect1_dropShadow_2279_10102" />
            <feBlend mode="normal" in="SourceGraphic" in2="effect1_dropShadow_2279_10102"
                result="shape" />
        </filter>
        <filter id="filter19_d_2279_10102" x="113.072" y="48.5874" width="8.77383" height="13.2912"
            filterUnits="userSpaceOnUse" color-interpolation-filters="sRGB">
            <feFlood flood-opacity="0" result="BackgroundImageFix" />
            <feColorMatrix in="SourceAlpha" type="matrix"
                values="0 0 0 0 0 0 0 0 0 0 0 0 0 0 0 0 0 0 127 0" result="hardAlpha" />
            <feOffset dx="1.6" dy="1.6" />
            <feColorMatrix type="matrix" values="0 0 0 0 0 0 0 0 0 0 0 0 0 0 0 0 0 0 1 0" />
            <feBlend mode="normal" in2="BackgroundImageFix" result="effect1_dropShadow_2279_10102" />
            <feBlend mode="normal" in="SourceGraphic" in2="effect1_dropShadow_2279_10102"
                result="shape" />
        </filter>
        <filter id="filter20_d_2279_10102" x="121.27" y="43.2773" width="9.08477" height="14.6791"
            filterUnits="userSpaceOnUse" color-interpolation-filters="sRGB">
            <feFlood flood-opacity="0" result="BackgroundImageFix" />
            <feColorMatrix in="SourceAlpha" type="matrix"
                values="0 0 0 0 0 0 0 0 0 0 0 0 0 0 0 0 0 0 127 0" result="hardAlpha" />
            <feOffset dx="1.7" dy="1.6" />
            <feColorMatrix type="matrix" values="0 0 0 0 0 0 0 0 0 0 0 0 0 0 0 0 0 0 1 0" />
            <feBlend mode="normal" in2="BackgroundImageFix" result="effect1_dropShadow_2279_10102" />
            <feBlend mode="normal" in="SourceGraphic" in2="effect1_dropShadow_2279_10102"
                result="shape" />
        </filter>
    </defs>
</svg>
    