<svg width="23" height="22" viewBox="0 0 23 22" fill="none" xmlns="http://www.w3.org/2000/svg">
    <path
        d="M0 17.6L0.547709 15.4H6.57251L6.0248 17.6H0ZM2.19084 13.2L2.73854 11H9.85876L9.31105 13.2H2.19084ZM19.252 19.8L19.7997 15.4L20.5939 8.8L20.8677 6.6275L19.252 19.8ZM5.47709 22C4.87461 22 4.35885 21.7846 3.92981 21.3538C3.50077 20.9229 3.28625 20.405 3.28625 19.8H19.252L20.8677 6.6275H17.8553L17.5541 8.965C17.5176 9.27667 17.3806 9.51958 17.1433 9.69375C16.906 9.86792 16.6321 9.93667 16.3217 9.9C16.0114 9.86333 15.7695 9.73042 15.596 9.50125C15.4226 9.27208 15.3541 9.00167 15.3906 8.69L15.6371 6.6275H11.2828L10.9816 8.9375C10.9451 9.24917 10.8081 9.49667 10.5708 9.68C10.3334 9.86333 10.0596 9.93667 9.74922 9.9C9.43885 9.86333 9.19238 9.72583 9.00981 9.4875C8.82724 9.24917 8.75422 8.97417 8.79073 8.6625L9.0372 6.6275H4.92938C5.00241 6.00417 5.23975 5.47708 5.6414 5.04625C6.04306 4.61542 6.53599 4.4 7.12022 4.4H9.31105C9.45711 3.025 9.92723 1.94792 10.7214 1.16875C11.5156 0.389583 12.5973 0 13.9666 0C15.135 0 16.1072 0.435417 16.8831 1.30625C17.659 2.17708 18.0379 3.20833 18.0196 4.4H20.8129C21.4702 4.41833 22.0179 4.675 22.4561 5.17C22.8942 5.665 23.0677 6.2425 22.9764 6.9025L21.3333 20.1025C21.2602 20.6525 21.0183 21.1062 20.6075 21.4637C20.1968 21.8212 19.7175 22 19.1698 22H5.47709ZM11.5019 4.4H15.8562C15.8744 3.795 15.669 3.27708 15.24 2.84625C14.811 2.41542 14.2952 2.2 13.6927 2.2C13.0537 2.2 12.5471 2.39708 12.1728 2.79125C11.7986 3.18542 11.5749 3.72167 11.5019 4.4Z"
        fill="currentColor" />
</svg>
    