<svg width="30" height="30" viewBox="0 0 30 30" fill="none" xmlns="http://www.w3.org/2000/svg">
<path d="M15.5113 16.2713C16.081 14.9505 17.0889 13.8667 18.3649 13.2027C19.6409 12.5387 21.1069 12.3352 22.5155 12.6264C23.9241 12.9177 25.1891 13.6859 26.0972 14.8014C27.0052 15.917 27.5007 17.3116 27.5 18.75C27.5 23.5825 22.5 27.5 16.25 27.5C11.1538 27.5 6.05877 26.475 3.28627 24.4225C2.75377 24.0275 2.49752 23.3825 2.51127 22.72C2.64752 15.9038 3.28377 2.5 12.5 2.5C13.4946 2.5 14.4484 2.89509 15.1517 3.59835C15.8549 4.30161 16.25 5.25544 16.25 6.25C16.25 6.91304 15.9866 7.54893 15.5178 8.01777C15.0489 8.48661 14.4131 8.75 13.75 8.75C12.3688 8.75 11.7 8.195 11.25 7.5" stroke="white" stroke-width="2.5" stroke-linecap="round" stroke-linejoin="round"/>
<path d="M18.75 17.5C17.9956 16.9339 17.1229 16.5459 16.1972 16.365C15.2716 16.1842 14.317 16.2151 13.405 16.4556C12.493 16.6961 11.6472 17.1399 10.9311 17.7538C10.215 18.3676 9.64714 19.1355 9.27002 20" stroke="white" stroke-width="2.5" stroke-linecap="round" stroke-linejoin="round"/>
<path d="M12.455 8.53125C10.0237 9.97125 11.875 16.25 10 18.75" stroke="white" stroke-width="2.5" stroke-linecap="round" stroke-linejoin="round"/>
</svg> 