<svg width="25" height="26" viewBox="0 0 25 26" fill="none" xmlns="http://www.w3.org/2000/svg">
    <path fill-rule="evenodd" clip-rule="evenodd"
        d="M3.45829 9.95841C3.45829 7.56042 4.4109 5.26063 6.10654 3.56499C7.80218 1.86935 10.102 0.916748 12.5 0.916748C14.898 0.916748 17.1977 1.86935 18.8934 3.56499C20.589 5.26063 21.5416 7.56042 21.5416 9.95841V14.8202L23.895 19.5271C24.0034 19.7437 24.0545 19.9845 24.0437 20.2264C24.0328 20.4684 23.9602 20.7036 23.8329 20.9096C23.7055 21.1156 23.5276 21.2857 23.316 21.4036C23.1045 21.5216 22.8663 21.5835 22.624 21.5834H17.5039C17.2166 22.692 16.5693 23.6737 15.6636 24.3746C14.7579 25.0755 13.6451 25.4558 12.5 25.4558C11.3548 25.4558 10.242 25.0755 9.33633 24.3746C8.43066 23.6737 7.78336 22.692 7.49604 21.5834H2.37588C2.13366 21.5835 1.89546 21.5216 1.68389 21.4036C1.47232 21.2857 1.29441 21.1156 1.16706 20.9096C1.03972 20.7036 0.967154 20.4684 0.956269 20.2264C0.945385 19.9845 0.996541 19.7437 1.10488 19.5271L3.45829 14.8202V9.95841ZM10.2628 21.5834C10.4895 21.9761 10.8156 22.3022 11.2084 22.5289C11.6011 22.7556 12.0465 22.875 12.5 22.875C12.9534 22.875 13.3989 22.7556 13.7916 22.5289C14.1843 22.3022 14.5104 21.9761 14.7371 21.5834H10.2628ZM12.5 3.50008C10.7871 3.50008 9.1444 4.18051 7.93323 5.39168C6.72206 6.60286 6.04163 8.24556 6.04163 9.95841V14.8202C6.0416 15.2211 5.94829 15.6164 5.76909 15.975L4.25784 19.0001H20.7434L19.2321 15.975C19.0525 15.6165 18.9587 15.2212 18.9583 14.8202V9.95841C18.9583 8.24556 18.2779 6.60286 17.0667 5.39168C15.8555 4.18051 14.2128 3.50008 12.5 3.50008Z"
        fill="#FFCF00" />
</svg>
    