<svg xmlns="http://www.w3.org/2000/svg" width="83.792" height="80.427" viewBox="0 0 83.792 80.427">
  <g id="Group_97" data-name="Group 97" transform="translate(-6263.516 -2125.257)">
    <path id="Path_39" data-name="Path 39" d="M39.824,12.2v8.956A26.868,26.868,0,1,0,66.692,48.026h8.956A35.824,35.824,0,1,1,39.824,12.2Z" transform="translate(6259.516 2121.833)"/>
    <g id="Group_96" data-name="Group 96" transform="translate(6288.825 2149.872)">
      <path id="Path_43" data-name="Path 43" d="M293.563,65.308c-3.858-1.584-4.157-2.265-4.157-3.055,0-.5.25-1.676,2.568-1.676a13.593,13.593,0,0,1,6.625,2.416L301.19,56.2a17,17,0,0,0-6.2-2.514V49.269h-6.91v4.848a8.932,8.932,0,0,0-6.635,8.66c0,5.41,4.328,7.826,8.556,9.472,3.378,1.359,3.661,2.4,3.661,3.268,0,1.336-1.231,2.2-3.137,2.2-2.484,0-5.373-1.433-7.4-3l-2.494,6.9a15.082,15.082,0,0,0,7.136,3.048v4.578h6.953V84.26a9.469,9.469,0,0,0,6.943-9.049C301.666,69.341,297.336,66.835,293.563,65.308Z" transform="translate(-280.635 -49.269)"/>
    </g>
    <path id="Path_44" data-name="Path 44" d="M28.093,11.879,17.071.856A2.923,2.923,0,1,0,12.937,4.99l6.033,6.033-16.047.056a2.923,2.923,0,1,0,0,5.846l16.047-.056L12.937,22.9a2.923,2.923,0,1,0,4.134,4.133L28.093,16.012A2.923,2.923,0,0,0,28.093,11.879Z" transform="translate(6307.204 2143.865) rotate(-40)"/>
  </g>
</svg>
