<svg width="17" height="20" viewBox="0 0 17 20" fill="none" xmlns="http://www.w3.org/2000/svg">
    <path
        d="M1 19V17.875C1 15.7864 1.79018 13.7834 3.1967 12.3065C4.60322 10.8297 6.51088 10 8.5 10M8.5 10C10.4891 10 12.3968 10.8297 13.8033 12.3065C15.2098 13.7834 16 15.7864 16 17.875V19M8.5 10C9.63664 10 10.7267 9.52589 11.5305 8.68198C12.3342 7.83807 12.7857 6.69347 12.7857 5.5C12.7857 4.30653 12.3342 3.16193 11.5305 2.31802C10.7267 1.47411 9.63664 1 8.5 1C7.36336 1 6.27327 1.47411 5.46954 2.31802C4.66581 3.16193 4.21429 4.30653 4.21429 5.5C4.21429 6.69347 4.66581 7.83807 5.46954 8.68198C6.27327 9.52589 7.36336 10 8.5 10Z"
        stroke="white" stroke-width="2" stroke-linecap="round" stroke-linejoin="round" />
</svg>
    