<svg width="25" height="24" viewBox="0 0 25 24" fill="none" xmlns="http://www.w3.org/2000/svg">
  <path d="M22.3167 23.4583L14.1792 15.3208C13.5333 15.8374 12.7906 16.2464 11.951 16.5478C11.1115 16.8492 10.2181 16.9999 9.27083 16.9999C6.92431 16.9999 4.93858 16.187 3.31367 14.5613C1.68875 12.9355 0.875862 10.9498 0.875001 8.60408C0.87414 6.25842 1.68703 4.2727 3.31367 2.64692C4.94031 1.02114 6.92603 0.208252 9.27083 0.208252C11.6156 0.208252 13.6018 1.02114 15.2293 2.64692C16.8568 4.2727 17.6693 6.25842 17.6667 8.60408C17.6667 9.55131 17.516 10.4447 17.2146 11.2843C16.9132 12.1239 16.5042 12.8666 15.9875 13.5124L24.125 21.6499L22.3167 23.4583ZM9.27083 14.4166C10.8854 14.4166 12.258 13.8517 13.3887 12.7219C14.5193 11.5921 15.0842 10.2195 15.0833 8.60408C15.0825 6.98864 14.5176 5.61646 13.3887 4.48754C12.2598 3.35863 10.8871 2.79331 9.27083 2.79159C7.65453 2.78986 6.28235 3.35518 5.15429 4.48754C4.02624 5.6199 3.46092 6.99208 3.45833 8.60408C3.45575 10.2161 4.02107 11.5887 5.15429 12.7219C6.28751 13.8551 7.65969 14.42 9.27083 14.4166Z" fill="#FFCF00"/>
  </svg>
  