<svg width="25" height="27" viewBox="0 0 25 27" fill="none" xmlns="http://www.w3.org/2000/svg">
<path d="M12.4622 17.5926C13.0238 17.5926 13.5799 17.4839 14.0987 17.2725C14.6176 17.0612 15.089 16.7515 15.4861 16.361C15.8832 15.9705 16.1982 15.507 16.4131 14.9968C16.628 14.4866 16.7386 13.9398 16.7386 13.3876C16.7386 12.8354 16.628 12.2886 16.4131 11.7784C16.1982 11.2683 15.8832 10.8047 15.4861 10.4142C15.089 10.0238 14.6176 9.71402 14.0987 9.5027C13.5799 9.29138 13.0238 9.18262 12.4622 9.18262C11.328 9.18262 10.2403 9.62564 9.43832 10.4142C8.63634 11.2028 8.18579 12.2724 8.18579 13.3876C8.18579 14.5029 8.63634 15.5724 9.43832 16.361C10.2403 17.1496 11.328 17.5926 12.4622 17.5926Z" stroke="white" stroke-width="1.625" stroke-linecap="round" stroke-linejoin="round"/>
<path d="M23.7139 17.2057C23.2102 18.6299 22.4325 19.9455 21.4231 21.0807L18.7231 20.4782C17.699 21.3813 16.4824 22.0476 15.1623 22.4282L14.4327 25.0269C13.7487 25.1475 13.0554 25.2098 12.3606 25.2132C11.4912 25.2141 10.6246 25.1177 9.77742 24.9257L9.00324 22.2432C7.84945 21.825 6.78883 21.1912 5.87983 20.3769L3.21025 21.0519C2.15153 19.8354 1.35686 18.4189 0.875 16.8894L2.8454 14.7369C2.66557 13.6361 2.69532 12.512 2.93312 11.4219L0.989411 9.42816C1.55443 7.86429 2.44997 6.43585 3.61704 5.23691L6.37561 5.91191C7.1352 5.31305 7.98141 4.82897 8.88628 4.47566L9.61597 1.82066C10.5172 1.59117 11.4436 1.47069 12.3745 1.46191C13.1182 1.46191 13.8619 1.52941 14.5928 1.66191L15.2933 4.30316C16.3484 4.63941 17.3374 5.15316 18.212 5.82441L20.9858 5.12066C22.1049 6.22971 22.9879 7.54706 23.583 8.99566L21.7015 11.0044C22.0583 12.381 22.0879 13.8198 21.788 15.2094L23.7139 17.2057Z" stroke="white" stroke-width="1.625" stroke-linecap="round" stroke-linejoin="round"/>
</svg>
