<svg xmlns="http://www.w3.org/2000/svg" width="52.663" height="52.663" viewBox="0 0 52.663 52.663">
  <path id="Path_12" data-name="Path 12" d="M501.013,63.99a5.456,5.456,0,0,0-.263,10.251l17.287,6.789a1.086,1.086,0,0,1,.617.617l6.789,17.286a5.456,5.456,0,0,0,10.252-.263L549.66,56.927a5.455,5.455,0,0,0-6.9-6.9Zm1.334,6.189a1.091,1.091,0,0,1,.05-2.05l38.444-12.864L519.278,76.829Zm20.22,9.532c.053.111.1.225.149.341L529.5,97.337a1.092,1.092,0,0,0,2.052-.053l13.357-39.917Z" transform="translate(-497.289 -49.731)" fill-rule="evenodd"/>
</svg>
