<svg xmlns="http://www.w3.org/2000/svg" width="52.663" height="47.048" viewBox="0 0 52.663 47.048">
  <path id="Path_29" data-name="Path 29" d="M70.332,59.17a4.389,4.389,0,0,1-4.065-2.733s0,0,0-.007a4.9,4.9,0,0,0-.625-.851A9.506,9.506,0,0,0,63.77,53.96a9.068,9.068,0,0,0-6.112-1.5,9.554,9.554,0,0,0-7.341,4.257A12.105,12.105,0,0,0,48.415,64a14.582,14.582,0,0,0,1.68,6.482c1.321,2.481,3.883,5.793,9.156,10.649,4.981,4.587,8.464,7.572,10.684,9.37a.544.544,0,0,0,.793,0c2.219-1.8,5.7-4.783,10.684-9.37,5.273-4.856,7.835-8.168,9.156-10.649A14.582,14.582,0,0,0,92.248,64a12.089,12.089,0,0,0-1.915-7.279A9.569,9.569,0,0,0,83,52.464a9.265,9.265,0,0,0-5.936,1.567A11.117,11.117,0,0,0,75,55.712a5.33,5.33,0,0,0-.623.766.329.329,0,0,1,.016-.042A4.389,4.389,0,0,1,70.332,59.17Zm-2.955-7.992a10.426,10.426,0,0,1,2.955,3.6,10.267,10.267,0,0,1,3.052-3.511A14.085,14.085,0,0,1,83.478,48.1c10.047,1.1,13.6,10.02,13.147,16.223-.382,5.233-1.36,10.02-12.24,20.04-5.028,4.631-8.584,7.68-10.894,9.552a4.914,4.914,0,0,1-6.319,0c-2.31-1.872-5.866-4.921-10.894-9.552-10.88-10.02-11.858-14.807-12.24-20.04C43.585,58.121,47.1,49.2,57.185,48.1A13.558,13.558,0,0,1,67.377,51.178Z" transform="translate(-44 -48.018)" fill-rule="evenodd"/>
</svg>
