<svg width="26" height="19" viewBox="0 0 26 19" fill="none" xmlns="http://www.w3.org/2000/svg">
    <path
        d="M13 1.00127L5.54106 1.00127C4.94387 1.00127 4.35254 1.11992 3.80094 1.35043C3.24933 1.58094 2.74828 1.91878 2.32648 2.3446C1.90467 2.77043 1.57039 3.27588 1.34277 3.83201C1.11516 4.38815 0.998682 4.98405 1.00001 5.58559L1.00001 13.4259C1.00001 14.639 1.47844 15.8024 2.33005 16.6603C2.75173 17.085 3.25233 17.4219 3.80328 17.6518C4.35422 17.8817 4.94472 18 5.54106 18H13C14.2044 18 15.3594 17.5181 16.211 16.6603C17.0626 15.8024 17.5411 14.639 17.5411 13.4259V5.58686C17.5429 4.98506 17.4268 4.38881 17.1994 3.83231C16.972 3.2758 16.6377 2.76998 16.2159 2.34385C15.794 1.91772 15.2928 1.57966 14.7409 1.34906C14.1891 1.11845 13.5975 0.99983 13 1M25 6.24085V12.7744C25 13.0925 24.9103 13.4055 24.7411 13.6752C24.5696 13.9458 24.3269 14.163 24.04 14.3025C23.755 14.4462 23.434 14.5011 23.1179 14.4603C22.8063 14.4227 22.5107 14.3004 22.2627 14.1066L18.1891 10.8137C17.9934 10.6515 17.8352 10.4483 17.7254 10.2182C17.6157 9.98817 17.5571 9.73677 17.5537 9.48155C17.5537 9.22708 17.6105 8.97642 17.7217 8.74994C17.8379 8.53619 17.9971 8.34915 18.1891 8.20028L22.2627 4.93414C22.5107 4.73953 22.8069 4.61718 23.1192 4.58042C23.4349 4.53971 23.7558 4.59442 24.04 4.73692C24.3226 4.8735 24.5619 5.08642 24.7314 5.35196C24.9009 5.6175 24.9939 5.92522 25 6.24085Z"
        stroke-width="1.5" fill="currentColor" stroke-linecap="round" stroke-linejoin="round" />
</svg>
    