<svg xmlns="http://www.w3.org/2000/svg" width="1061.131" height="1238.699" viewBox="0 0 1061.131 1238.699">
  <g id="icon2" transform="translate(-28.42 1287.827)">
    <path id="Path_52" data-name="Path 52" d="M520.5-1286.9c-97.7,7.6-186.5,39.2-265.5,94.4-25.7,18-44,33.3-67.9,56.8C116.1-1065.8,67.8-981.3,44-885.5c-22.4,90-20.6,186.8,5.1,275.5,10,34.3,28.2,79.9,34.9,87,6.1,6.6,14.9,7.5,21.8,2.3,8.7-6.5,9.3-13.1,2.6-27.7C62.2-648.7,50.6-758.9,74.6-867.1c40.7-183.7,185.5-330.2,369.4-373.8,58.5-13.9,128.3-16.9,186.5-8.1,75.8,11.4,144.1,37.8,207,80.2,78,52.6,140.9,128.9,178.3,216.4,20.3,47.3,32.1,93.9,37.8,148.9,2,19.6,2.3,66.8.5,86.5-5.4,59.4-19.2,112.5-42.7,164.7-4.1,9-6.4,15.4-6.4,17.7a16.567,16.567,0,0,0,6.5,13.3c6.9,5.7,16.3,5,22.5-1.7,6-6.4,23.8-49.7,33-80.6,31.1-103.6,30-217.1-3.1-317.4a497.2,497.2,0,0,0-28.5-70c-27.3-55.4-61.2-102.1-106-146a515,515,0,0,0-129.9-93.4c-62.7-32-127.8-50.4-198.4-56C580.8-1288.1,538.4-1288.3,520.5-1286.9Z" fill="#fff"/>
    <path id="Path_53" data-name="Path 53" d="M531-1139.4c-51.8,4.6-95.4,16.4-139.5,37.9-72.6,35.4-133.6,94.7-170.6,166-44.2,85.2-55.1,179.9-31.2,273,9.3,36.3,26.9,77.3,45.4,105.7l2.4,3.8H880.8l5.3-8.8c28.4-47.2,46-99.8,52.5-156.7,2.1-18.3,2.3-58.5.5-76-3.6-34.2-11.4-68-22.6-98-10.5-28.1-23.7-53.6-41.8-80.5-49.8-74.2-128.3-130.3-215.4-153.9-33.5-9.1-56.9-12.2-94.8-12.6C548.6-1139.6,533.5-1139.6,531-1139.4ZM501.3-932.6c1.8.7,19.4,11.4,39.2,23.8,58.5,36.5,116.4,72.5,141,87.8,12.7,7.8,24.1,15.2,25.3,16.4,7,6.3,7.6,18.8,1.3,25.4-1.4,1.5-18.6,12.7-38.1,24.9-19.5,12.1-63.8,39.7-98.5,61.4-69.6,43.4-69.7,43.4-74.2,44.4-7.5,1.5-17.9-4.7-20.1-12.3-.9-2.9-1.2-36.9-1.2-131.3,0-122.1.1-127.6,1.9-131.5A18.44,18.44,0,0,1,501.3-932.6Z" fill="#fff"/>
    <path id="Path_54" data-name="Path 54" d="M170.1-501.9a81.234,81.234,0,0,0-64,66.9c-.9,5.5-1.1,48.1-.9,163.5l.3,156,2.3,7.3c9.7,31.3,34.5,53.4,65.3,58.2,5.5.8,107.1,1,390.4.8l383-.3,7.5-2.3c27.4-8.4,47.7-28.8,56.2-56.2l2.3-7.5.3-156c.2-115.5,0-157.9-.9-163.5a82.8,82.8,0,0,0-30.8-52c-6.3-4.8-14.6-9.2-24.6-12.9l-7-2.6L562-502.6C345-502.7,172.6-502.4,170.1-501.9ZM293.9-386.7c.8,1,1.2,27.2,1.3,92.3l.3,90.9,53.4.3c37.4.1,53.8.6,54.8,1.3,2.1,1.8,1.9,34.2-.3,36.3-1.4,1.4-9.7,1.6-76.3,1.6-56.8,0-75-.3-75.9-1.2S250-192,250-275.6c0-60.1.3-109.9.6-110.8.5-1.4,3.4-1.6,21.4-1.6C288.2-388,293-387.7,293.9-386.7Zm182.9-.1c.9.9,1.2,26.8,1.2,110.4,0,98-.2,109.4-1.6,110.8-2.3,2.4-40.5,2.4-42.8,0-1.4-1.4-1.6-12.8-1.6-110.8,0-83.6.3-109.5,1.2-110.4C434.9-388.5,475.1-388.5,476.8-386.8Zm76,0c.5.7,10.6,36.5,22.3,79.5C586.8-264.2,596.7-229,597-229c1,0,2.9-7.1,32.1-117,5.5-20.6,10.4-38.5,10.9-39.8l1-2.2,22.7.2c22.2.3,22.8.4,23.1,2.4.2,1.1-2.7,11.6-6.3,23.2-3.6,11.7-9.5,30.8-13.1,42.4-17.6,56.9-45.7,147.7-46.5,150.5-.6,1.8-1.8,3.7-2.9,4.3-2.2,1.2-42.9,1.4-44.8.2-.7-.5-4.1-10.3-7.6-21.8-7.1-23-9-29.1-36.1-118.4-10.2-33.8-19.9-65.6-21.6-70.7-1.6-5.1-2.6-9.9-2.3-10.8.5-1.3,3.8-1.5,23.4-1.5C546-388,552-387.7,552.8-386.8Zm314.6.4c.3.9.6,9.1.6,18.4,0,12.8-.3,17-1.3,17.9-1,.7-17.4,1.2-54.8,1.3l-53.4.3v51l35.4.3c24.5.1,35.8.6,36.8,1.4,1.1.8,1.3,4.9,1.1,19.2l-.3,18.1L795-258l-36.5.5v54l54.5.5,54.5.5.3,17.9c.2,12.3-.1,18.3-.9,19.2-1.6,1.9-150.8,2.1-152.7.2-.9-.9-1.2-26.8-1.2-110.4,0-60.1.3-109.9.6-110.8.6-1.4,8.3-1.6,76.9-1.6S866.8-387.8,867.4-386.4Z" fill="#fff"/>
  </g>
</svg>
